# xmcd
#
# Track frame offsets:
#	150
#	31189
#	45601
#	48606
#	53571
#	107995
#	123707
#	191519
#	192735
#	215834
#	237057
#
# Disc length: 3818 seconds
# Revision: 0
# Processed by: cddbd v1.5.2PL0 Copyright (c) Steve Scherf et al.
# Submitted via: dBpowerAMP V12.0
#
DISCID=a40ee80b
DTITLE=Hale Dwoskin - The Inner Circle Retreat 02 CD 12
DYEAR=2007
DGENRE=Speech
TTITLE0=Instructions - Partnership Release Demonstration - Summary
TTITLE1=Feelings Only Lie
TTITLE2=How to Identify Intuitive Knowing
TTITLE3=Question on How to Do the Process
TTITLE4=Feeling Separation - Wanting to Connect
TTITLE5=Wanting to Have Feelings
TTITLE6=Feeling Invisible
TTITLE7=Feeling Invisible
TTITLE8=Trying to Get Access to Who You Are
TTITLE9=Resistance to Studying
TTITLE10=Feeling Guilty about Being Successful
EXTD=
EXTT0=
EXTT1=
EXTT2=
EXTT3=
EXTT4=
EXTT5=
EXTT6=
EXTT7=
EXTT8=
EXTT9=
EXTT10=
PLAYORDER=
